<svg viewBox="0 0 17 15" fill="none" xmlns="http://www.w3.org/2000/svg">
  <path
    fillRule="evenodd"
    clipRule="evenodd"
    d="M8.5 1C4.636 1 1.337 3.488 0 7c1.337 3.512 4.636 6 8.5 6s7.163-2.488 8.5-6c-1.337-3.512-4.636-6-8.5-6zm0 10.286c-2.346 0-4.25-1.92-4.25-4.286 0-2.366 1.904-4.286 4.25-4.286S12.75 4.634 12.75 7c0 2.366-1.904 4.286-4.25 4.286zm0-6.857A2.557 2.557 0 005.95 7 2.557 2.557 0 008.5 9.571 2.557 2.557 0 0011.05 7 2.557 2.557 0 008.5 4.429z"
    fill="#B8B8B8"
  ></path>
  <path stroke="#B8B8B8" strokeWidth="2" d="M16.345 13.756l-15-13"></path>
</svg>
