<svg viewBox="0 0 20 21" className="w-[1.125rem] cursor-pointer" fill="none" xmlns="http://www.w3.org/2000/svg">
    <path
        d="M18.378 16.761c.028.003.057 0 .083-.011a.152.152 0 00.065-.049.127.127 0 00.007-.145l-2.038-4.651a1.263 1.263 0 01-.089-.425V7.388c0-1.518-.675-2.973-1.876-4.046-1.202-1.073-2.832-1.675-4.531-1.675-1.7 0-3.33.602-4.531 1.675C4.266 4.415 3.591 5.87 3.591 7.388v4.092a1.266 1.266 0 01-.09.425l-2.039 4.651a.129.129 0 00.01.145.154.154 0 00.065.048c.026.01.054.015.083.012h16.758zM13.111 16.444a3.11 3.11 0 11-6.222 0"
        stroke="#686868"
        strokeWidth="1.5"
        strokeMiterlimit="10"
    ></path>
</svg>