<svg width="21" height="21" fill="none" xmlns="http://www.w3.org/2000/svg" class=""><path fill-rule="evenodd" clip-rule="evenodd" d="M18.245.352c1.102 0 1.994.892 1.994 1.993v15.952a1.994 1.994 0 01-1.994 1.994H2.292a1.994 1.994 0 01-1.994-1.994V2.345c0-1.1.893-1.993 1.994-1.993h15.953zm-7.79 3.987H6.28v11.964h4.175c1.695 0 2.919-.259 3.67-.776.753-.518 1.13-1.35 1.13-2.497 0-.944-.25-1.678-.747-2.2a2.707 2.707 0 00-.92-.62c-.37-.158-.81-.258-1.32-.301.834-.075 1.461-.325 1.884-.752.428-.438.642-1.038.642-1.8 0-1.004-.362-1.759-1.085-2.265-.671-.466-1.655-.715-2.95-.749l-.304-.004zm0 6.538c.787 0 1.35.142 1.692.425.341.282.512.746.512 1.392 0 .635-.162 1.08-.486 1.336-.33.256-.902.384-1.718.384H8.754v-3.537h1.7zm0-4.657c.376 0 .67.032.88.096.212.064.378.144.5.24.15.123.257.272.32.448.064.176.096.382.096.616 0 .267-.034.482-.104.645-.07.162-.17.297-.304.404a1.353 1.353 0 01-.538.248 3.71 3.71 0 01-.85.08H8.754V6.22h1.7z" fill="#D2D2D2"></path></svg>