<svg width="21" height="15" fill="none" xmlns="http://www.w3.org/2000/svg" class=""><path fill-rule="evenodd" clip-rule="evenodd" d="M10.415.297h.05l.378.002c.634.004 1.832.017 3.095.058l.508.018c1.527.059 3.053.162 3.72.341.858.231 1.534.911 1.763 1.775.361 1.356.41 3.99.416 4.668v.325c-.007.678-.055 3.312-.416 4.668a2.506 2.506 0 01-1.763 1.775c-.63.17-2.026.27-3.466.33l-.508.02c-1.524.054-3.001.066-3.571.068l-.155.001H10.127a122.94 122.94 0 01-3.57-.069l-.51-.02c-1.439-.06-2.835-.16-3.465-.33A2.506 2.506 0 01.82 12.152C.444 10.744.407 7.958.403 7.414v-.186C.407 6.685.444 3.9.819 2.491A2.506 2.506 0 012.582.716C3.878.366 8.425.308 9.905.3l.378-.002h.132zm-2.08 4.06v5.93l5.212-2.965-5.213-2.965z" fill="#D2D2D2"></path></svg>